<?xml version="1.0" encoding="UTF-8" standalone="no"?>
<!-- Created with Inkscape (http://www.inkscape.org/) -->

<svg
   width="210mm"
   height="297mm"
   viewBox="0 0 210 297"
   version="1.1"
   id="svg1"
   xml:space="preserve"
   inkscape:version="1.3.2 (091e20e, 2023-11-25, custom)"
   sodipodi:docname="icon.svg"
   xmlns:inkscape="http://www.inkscape.org/namespaces/inkscape"
   xmlns:sodipodi="http://sodipodi.sourceforge.net/DTD/sodipodi-0.dtd"
   xmlns="http://www.w3.org/2000/svg"
   xmlns:svg="http://www.w3.org/2000/svg"><sodipodi:namedview
     id="namedview1"
     pagecolor="#ffffff"
     bordercolor="#000000"
     borderopacity="0.25"
     inkscape:showpageshadow="2"
     inkscape:pageopacity="0.0"
     inkscape:pagecheckerboard="0"
     inkscape:deskcolor="#d1d1d1"
     inkscape:document-units="mm"
     showguides="true"
     inkscape:zoom="1.28"
     inkscape:cx="341.79688"
     inkscape:cy="533.98438"
     inkscape:window-width="1920"
     inkscape:window-height="1054"
     inkscape:window-x="-9"
     inkscape:window-y="-9"
     inkscape:window-maximized="1"
     inkscape:current-layer="layer1" /><defs
     id="defs1" /><g
     inkscape:label="Layer 1"
     inkscape:groupmode="layer"
     id="layer1"><path
       style="fill:#000000;fill-opacity:0;stroke:#000000;stroke-width:2.64583;stroke-dasharray:none;stroke-opacity:1"
       d="m 125.54358,120.30805 c -1.69613,-0.71237 -2.7068,-2.20313 -2.7068,-3.99259 0,-1.20563 0.37467,-2.07243 1.29273,-2.99066 0.92795,-0.92814 1.67468,-1.22758 3.05636,-1.2256 1.18543,0.001 2.12669,0.42731 3.06627,1.38649 1.96275,2.0037 1.26857,5.50942 -1.3319,6.72629 -0.99276,0.46455 -2.40372,0.50469 -3.37666,0.0961 z"
       id="path24"
       inkscape:export-filename="icon_512.png"
       inkscape:export-xdpi="182.21396"
       inkscape:export-ydpi="182.21396" /><path
       style="fill:#000000;stroke-width:1.30866;stroke-dasharray:none"
       d="m 129.3727,155.69114 c -0.39387,-0.41984 -0.4098,-0.52994 -0.4098,-2.83142 0,-2.2307 0.0302,-2.45822 0.44105,-3.32431 0.5105,-1.07611 0.95139,-1.58171 2.01003,-2.30506 1.17146,-0.80044 1.69068,-0.8936 5.34634,-0.95932 3.7928,-0.0682 4.16334,-0.16538 4.92228,-1.29159 0.33383,-0.49537 0.38202,-0.78676 0.38993,-2.35743 0.005,-0.98569 0.024,-3.52927 0.0422,-5.6524 l 0.0333,-3.86022 0.44372,-0.38175 c 0.33581,-0.2889 0.73944,-0.40655 1.65959,-0.48369 1.92731,-0.16158 2.86749,-0.92235 3.00478,-2.4314 0.0685,-0.75289 -0.0486,-1.06868 -1.52516,-4.11181 -1.49341,-3.07797 -2.85076,-6.4143 -5.36421,-13.18513 -2.30231,-6.20203 -4.4018,-9.87038 -7.08309,-12.37591 -1.62607,-1.519493 -2.36279,-2.016166 -4.45827,-3.005666 -3.59894,-1.699432 -6.59524,-2.241729 -12.62503,-2.284984 -2.27781,-0.01633 -4.23656,-0.04163 -4.35278,-0.05619 -0.40199,-0.05037 -0.88746,-0.704597 -0.88746,-1.195933 0,-1.393692 0.45056,-1.558269 4.55569,-1.664068 8.4844,-0.218663 14.443,1.377744 18.8286,5.0445 3.6873,3.082911 5.79876,6.663231 9.01398,15.284681 2.98207,7.99626 3.40481,9.02595 5.22398,12.72422 0.78995,1.60595 1.50807,3.29846 1.59582,3.76115 0.30585,1.61271 -0.32307,3.47515 -1.58867,4.70463 -0.78709,0.76463 -2.16532,1.5459 -2.72709,1.5459 -0.20719,0 -0.45497,0.0951 -0.55062,0.21131 -0.10537,0.12804 -0.20286,2.00979 -0.24739,4.77539 -0.0863,5.35556 -0.17914,5.81369 -1.46408,7.21962 -1.52051,1.66368 -2.69076,1.99054 -7.13242,1.99209 -2.63123,9.2e-4 -2.84131,0.0247 -3.36526,0.38132 -1.13013,0.76915 -1.24944,1.08938 -1.34681,3.61478 -0.0829,2.14977 -0.11276,2.30983 -0.48738,2.6128 -0.57697,0.4666 -1.3973,0.41723 -1.89577,-0.11411 z"
       id="path18" /><path
       id="path30"
       style="fill:#000000"
       d="m 85.19791,93.903312 c -3.01209,-0.078 -5.951838,2.11736 -6.172234,5.551599 -0.147109,2.292279 0.613013,4.086719 2.251543,5.315439 3.132247,2.34884 7.506593,1.2893 9.294006,-2.25154 l 0.537435,-1.06505 1.068668,0.11213 c 1.275017,0.13327 2.569502,0.75043 3.428732,1.63505 0.344647,0.35483 1.030409,1.39697 1.523421,2.31562 1.496442,2.78834 3.712859,4.59084 6.147429,4.99866 1.41881,0.23766 6.89296,0.22292 7.34839,-0.0196 0.58665,-0.31246 0.83374,-0.71428 0.83974,-1.36891 0.006,-0.65379 -0.47224,-1.24835 -1.11776,-1.38854 -0.22585,-0.049 -1.83134,-0.11163 -3.56826,-0.13953 -3.04041,-0.0489 -3.19661,-0.0697 -4.18372,-0.55449 -1.23207,-0.60504 -1.93283,-1.3654 -2.746605,-2.97914 -1.784298,-3.53831 -4.085088,-5.241835 -7.550444,-5.591394 l -1.281058,-0.129191 -0.505396,-0.992704 c -0.277975,-0.54589 -0.912531,-1.371758 -1.41025,-1.835547 -1.150504,-1.072082 -2.534506,-1.577367 -3.903637,-1.612822 z m -0.08837,3.085083 a 2.7548587,2.7548587 0 0 1 2.75487,2.754871 2.7548587,2.7548587 0 0 1 -2.75487,2.754874 2.7548587,2.7548587 0 0 1 -2.754871,-2.754874 2.7548587,2.7548587 0 0 1 2.754871,-2.754871 z" /><path
       id="path31"
       style="fill:#000000"
       d="m 85.19791,155.95104 c -3.01209,0.078 -5.951838,-2.11736 -6.172234,-5.5516 -0.147109,-2.29228 0.613013,-4.08672 2.251543,-5.31544 3.132247,-2.34884 7.506593,-1.2893 9.294006,2.25154 l 0.537435,1.06505 1.068668,-0.11213 c 1.275017,-0.13327 2.569502,-0.75043 3.428732,-1.63505 0.344647,-0.35483 1.030409,-1.39697 1.523421,-2.31562 1.496442,-2.78834 3.712859,-4.59084 6.147429,-4.99866 1.41881,-0.23766 6.89296,-0.22292 7.34839,0.0196 0.58665,0.31246 0.83374,0.71428 0.83974,1.36891 0.006,0.65379 -0.47224,1.24835 -1.11776,1.38854 -0.22585,0.049 -1.83134,0.11163 -3.56826,0.13953 -3.04041,0.0489 -3.19661,0.0697 -4.18372,0.55449 -1.23207,0.60504 -1.93283,1.3654 -2.746605,2.97914 -1.784298,3.53831 -4.085088,5.24183 -7.550444,5.59139 l -1.281058,0.12919 -0.505396,0.99271 c -0.277975,0.54589 -0.912531,1.37176 -1.41025,1.83555 -1.150504,1.07208 -2.534506,1.57736 -3.903637,1.61282 z m -0.08837,-3.08509 a 2.7548587,2.7548587 0 0 0 2.75487,-2.75487 2.7548587,2.7548587 0 0 0 -2.75487,-2.75487 2.7548587,2.7548587 0 0 0 -2.754871,2.75487 2.7548587,2.7548587 0 0 0 2.754871,2.75487 z" /><path
       id="path34"
       style="fill:#000000"
       d="m 84.828423,109.85944 c -3.482672,0.0827 -6.421621,3.17594 -5.807914,7.08949 0.749654,4.7805 6.704917,6.74426 10.191626,3.36052 0.404632,-0.39268 0.971996,-1.15115 1.260388,-1.68517 0.521743,-0.96608 0.528143,-0.97082 1.349788,-0.94412 1.154883,0.0376 2.77875,0.85667 3.879867,1.95698 0.677482,0.67698 1.223752,1.52605 2.050004,3.18534 l 1.126546,2.26239 -0.980302,2.05879 c -1.139413,2.3926 -2.100348,3.60056 -3.602364,4.52789 -1.09093,0.67353 -2.615039,1.13146 -3.12074,0.93741 -0.152396,-0.0585 -0.43207,-0.45712 -0.621667,-0.88573 -0.493644,-1.11597 -1.640702,-2.27987 -2.850472,-2.89285 -0.926324,-0.46937 -1.230664,-0.52968 -2.669605,-0.52968 -1.283816,0 -2.303909,0.34391 -2.970878,0.65215 -1.13881,0.52631 -1.921003,1.48303 -2.502172,2.58847 -0.424172,0.80683 -0.676962,1.89926 -0.676962,2.71405 0,0.72138 0.256736,1.93063 0.636654,2.70268 0.493023,1.00191 1.665053,2.26134 2.512508,2.69958 0.306475,0.15848 0.985391,0.40493 1.508435,0.54777 2.642324,0.72155 5.662416,-0.72427 7.001123,-3.35174 l 0.515214,-1.01131 1.336869,-0.21549 c 0.735255,-0.11861 1.849524,-0.45803 2.476335,-0.75447 2.512016,-1.188 3.712171,-2.46876 5.483906,-5.85029 0.57203,-1.09178 1.10511,-2.05225 1.18442,-2.13475 0.0793,-0.0825 2.11117,-0.18035 4.51497,-0.21705 4.75608,-0.0725 5.10883,-0.14521 5.34955,-1.10432 0.18136,-0.72258 -0.13688,-1.38077 -0.83716,-1.73168 -0.5452,-0.27321 -1.19091,-0.31549 -4.8147,-0.31574 l -4.18527,-5.2e-4 -1.18959,-2.31045 c -0.654127,-1.2709 -1.561021,-2.73569 -2.015383,-3.2551 -1.469748,-1.68014 -3.938337,-3.08405 -5.929354,-3.3724 -1.248882,-0.18087 -1.469647,-0.33094 -1.984892,-1.34773 -0.661539,-1.30546 -1.421923,-2.08152 -2.63188,-2.68614 -0.994443,-0.49693 -2.01175,-0.70994 -2.986898,-0.68678 z m 0.325045,3.70986 a 2.1900177,2.1900177 0 0 1 2.190047,2.18953 2.1900177,2.1900177 0 0 1 -2.190047,2.19004 2.1900177,2.1900177 0 0 1 -2.190047,-2.19004 2.1900177,2.1900177 0 0 1 2.190047,-2.18953 z m -0.0217,18.61385 a 2.1900177,2.1900177 0 0 1 2.190047,2.19004 2.1900177,2.1900177 0 0 1 -2.190047,2.19005 2.1900177,2.1900177 0 0 1 -2.190048,-2.19005 2.1900177,2.1900177 0 0 1 2.190048,-2.19004 z" /><text
       xml:space="preserve"
       style="font-size:3.175px;opacity:1;fill:#000000;fill-opacity:1;stroke:#000000;stroke-width:1.32292;stroke-dasharray:none;stroke-opacity:1"
       x="26.061838"
       y="196.07596"
       id="text35"><tspan
         sodipodi:role="line"
         id="tspan35"
         style="stroke-width:1.32292"
         x="26.061838"
         y="196.07596" /></text></g></svg>
